<svg width="24" height="24" viewBox="0 0 24 24" fill="none" xmlns="http://www.w3.org/2000/svg">
<mask id="mask0_462_616" style="mask-type:alpha" maskUnits="userSpaceOnUse" x="0" y="0" width="24" height="24">
<rect width="24" height="24" fill="#D9D9D9"/>
</mask>
<g mask="url(#mask0_462_616)">
<path d="M4.42859 19.0711C3.34436 17.9868 2.80225 16.6905 2.80225 15.182C2.80225 13.6735 3.34436 12.3771 4.42859 11.2929L11.8532 3.86828C12.631 3.09047 13.5738 2.70156 14.6816 2.70156C15.7894 2.70156 16.7323 3.09047 17.5101 3.86828C18.2879 4.6461 18.6768 5.58891 18.6768 6.69671C18.6768 7.80451 18.2879 8.74732 17.5101 9.52514L10.7926 16.2427C10.2976 16.7376 9.70832 16.9851 9.02479 16.9851C8.34125 16.9851 7.75199 16.7376 7.25702 16.2427C6.76204 15.7477 6.51456 15.1584 6.51456 14.4749C6.51456 13.7913 6.76204 13.2021 7.25702 12.7071L13.9745 5.9896L15.0352 7.05026L8.31768 13.7678C8.11733 13.9681 8.0174 14.2038 8.01787 14.4749C8.01739 14.7459 8.11733 14.9816 8.31768 15.182C8.51803 15.3823 8.75396 15.4825 9.02549 15.4825C9.29608 15.4825 9.53155 15.3823 9.73189 15.182L16.4494 8.46448C16.9444 7.9695 17.1919 7.38025 17.1919 6.69671C17.1919 6.01317 16.9444 5.42392 16.4494 4.92894C15.9544 4.43397 15.3652 4.18648 14.6816 4.18648C13.9981 4.18648 13.4088 4.43397 12.9139 4.92894L5.48925 12.3536C4.71143 13.1314 4.32253 14.0742 4.32253 15.182C4.32253 16.2898 4.71144 17.2326 5.48925 18.0104C6.26707 18.7882 7.20988 19.1771 8.31768 19.1771C9.42548 19.1771 10.3683 18.7882 11.1461 18.0104L18.5707 10.5858L19.6314 11.6465L12.2068 19.0711C11.1225 20.1553 9.82617 20.6974 8.31768 20.6974C6.80918 20.6974 5.51282 20.1553 4.42859 19.0711Z" fill="#1C1B1F"/>
</g>
</svg>
